<?xml version="1.0" encoding="utf-8"?>
<!-- Generator: Adobe Illustrator 26.3.1, SVG Export Plug-In . SVG Version: 6.00 Build 0)  -->
<svg version="1.1" id="Capa_1" xmlns="http://www.w3.org/2000/svg" xmlns:xlink="http://www.w3.org/1999/xlink" x="0px" y="0px"
	 width="256px" height="256px" viewBox="0 0 256 256" enable-background="new 0 0 256 256" xml:space="preserve">
<g>
	<g>
		<g>
			<g>
				<g>
					<g>
						<path fill="#FFFFFF" d="M229.8,116.9c0,61.4-49.7,111.2-111.2,111.2c-61.4,0-111.2-49.8-111.2-111.2S57.2,5.7,118.6,5.7
							C180,5.7,229.8,55.5,229.8,116.9z"/>
						<path fill="#1F1E1F" d="M118.6,231.5C55.4,231.5,4,180.1,4,116.9C4,53.7,55.4,2.3,118.6,2.3c63.2,0,114.6,51.4,114.6,114.6
							C233.2,180.1,181.8,231.5,118.6,231.5z M118.6,9.2C59.2,9.2,10.8,57.5,10.8,116.9c0,59.4,48.3,107.8,107.8,107.8
							c59.4,0,107.7-48.3,107.7-107.8C226.4,57.5,178,9.2,118.6,9.2z"/>
					</g>
				</g>
			</g>
		</g>
		<g>
			<path fill="#1F1E1F" d="M118.6,231.6c-24.8,0-44.2-50.4-44.2-114.8c0-64.4,19.4-114.8,44.2-114.8s44.2,50.4,44.2,114.8
				C162.8,181.2,143.4,231.6,118.6,231.6z M118.6,8.9c-18.1,0-37.4,43.4-37.4,108c0,64.6,19.3,107.9,37.4,107.9
				c18.1,0,37.4-43.4,37.4-107.9C156,52.3,136.7,8.9,118.6,8.9z"/>
		</g>
		<g>
			<rect x="115.2" y="5.5" fill="#1F1E1F" width="6.8" height="222.7"/>
		</g>
		<g>
			<path fill="#1F1E1F" d="M118.6,178.6c-63.3,0-114.8-27.7-114.8-61.7c0-34,51.5-61.7,114.8-61.7c63.3,0,114.8,27.7,114.8,61.7
				C233.4,150.9,181.9,178.6,118.6,178.6z M118.6,62C59.1,62,10.7,86.6,10.7,116.8c0,30.3,48.4,54.9,107.9,54.9
				c59.5,0,107.9-24.6,107.9-54.9C226.6,86.6,178.1,62,118.6,62z"/>
		</g>
		<g>
			<rect x="7.2" y="113.4" fill="#1F1E1F" width="222.7" height="6.8"/>
		</g>
		<g>
			<path fill="#1F1E1F" d="M118.6,231.6c-48.2,0-87.4-51.5-87.4-114.8c0-63.3,39.2-114.8,87.4-114.8c48.2,0,87.4,51.5,87.4,114.8
				C206,180.1,166.8,231.6,118.6,231.6z M118.6,8.9c-44.4,0-80.5,48.4-80.5,108c0,59.5,36.1,107.9,80.5,107.9
				c44.4,0,80.5-48.4,80.5-107.9C199.1,57.3,163,8.9,118.6,8.9z"/>
		</g>
	</g>
	<g>
		<g>
			<g>
				<g>
					<path fill="#FFFFFF" stroke="#0241B8" stroke-width="3.4194" stroke-miterlimit="10" d="M135.2,189.8c-7.8-7.9-9.4-9.3-9.7-9.5
						c0,0-0.2-0.2-0.4-0.4c-1-1-2.7-1-3.7,0L83,219c-1,1-1,2.7,0,3.7c0,0,11.6,13.7,23.4,21.1c1.4,0.9,2.9,1.7,4.4,2.4
						c13.2,6.3,27.4,5.2,39.7,0.1c17.5-7.2,51.5-43.5,51.5-43.5s35.7-34.6,42.6-52.3c5.4-13.8,5.9-29.8-3.3-44
						c-7.6-11.7-21.5-23.1-21.5-23.1c-1-1-2.7-1-3.7,0l-38.4,39.1c-1,1-1,2.7,0,3.7c0.1,0.1,0.3,0.2,0.5,0.3c0,0,1.6,1.9,9.6,9.6
						c10.2,9.8,16.7,8.3,16.7,8.3c-1.8,6.3-28.8,32.6-28.8,32.6s-25.8,27.4-32.1,29.3C143.8,206.4,144.9,199.6,135.2,189.8z"/>
					<path fill="#1F1E1F" stroke="#0241B8" stroke-width="3.4194" stroke-miterlimit="10" d="M130.2,254c-7.3,0-14.3-1.6-20.8-4.7
						c-1.5-0.7-3.1-1.6-4.7-2.6c-12.1-7.6-23.8-21.2-24.2-21.8c-0.9-0.9-1.6-2.4-1.6-4c0-1.6,0.6-3.1,1.7-4.3l38.4-39
						c2.3-2.3,6.3-2.3,8.6,0l0.4,0.4c1.9,1.7,5.1,4.9,9.7,9.5c5.3,5.3,7.7,10,8.8,13.4c6.1-4.8,17.5-15.9,27-26
						c10-9.8,20.9-21.3,25.6-27.5c-3.4-1-8.1-3.4-13.5-8.6c-6.1-5.9-8.6-8.4-9.4-9.4c-0.2-0.1-0.5-0.3-0.7-0.6
						c-2.3-2.3-2.4-6.1,0-8.5l38.4-39.1c2.3-2.3,6.2-2.3,8.5-0.1c0.4,0.3,14.2,11.7,22,23.7c8.8,13.7,10.1,30.4,3.6,47.1
						c-7.1,18.1-41.9,52-43.4,53.5c-1.3,1.4-34.6,36.8-52.6,44.2C144.7,252.5,137.4,254,130.2,254z M86,220.9
						c2.4,2.7,12.4,13.9,22.3,20c1.4,0.9,2.7,1.6,4.1,2.2c11.1,5.3,24.1,5.3,36.9,0.1c16.6-6.8,50-42.3,50.3-42.6
						c0.5-0.5,35.4-34.4,41.9-51.2c5.7-14.6,4.6-29.2-3-40.9c-6.5-10.1-18.2-20.1-20.4-22l-37.2,37.9c0,0,0,0,0,0
						c0.1,0.1,1.8,2,9.4,9.3c7.1,6.9,12,7.4,13.3,7.4c0.2,0,0.3,0,0.4,0c1.2-0.2,2.4,0.2,3.1,1.1c0.8,0.9,1.1,2.1,0.8,3.2
						c-1.9,6.7-23.2,27.8-29.6,34.1c-6.1,6.5-26.9,28.1-33.5,30.1c-1.1,0.3-2.4,0.1-3.2-0.7c-0.9-0.8-1.3-2-1.1-3.1l0,0
						c0,0,0.4-5.5-7.6-13.6c-3.1-3.1-7.2-7.3-9.4-9.3c0,0,0,0-0.1,0L86,220.9z"/>
				</g>
			</g>
		</g>
		<g>
			<path fill="#1F1E1F" stroke="#0241B8" stroke-width="3.4194" stroke-miterlimit="10" d="M185.8,137.6c-0.9,0-1.7-0.3-2.4-0.9
				c-1.4-1.3-1.4-3.5-0.1-4.8l41.8-43.6c1.3-1.4,3.5-1.4,4.8-0.1c1.4,1.3,1.4,3.5,0.1,4.8l-41.8,43.6
				C187.6,137.2,186.7,137.6,185.8,137.6z"/>
		</g>
		<g>
			<path fill="#1F1E1F" stroke="#0241B8" stroke-width="3.4194" stroke-miterlimit="10" d="M92,235.5c-0.9,0-1.7-0.3-2.4-0.9
				c-1.4-1.3-1.4-3.5-0.1-4.8l41.8-43.6c1.3-1.4,3.5-1.4,4.8-0.1c1.4,1.3,1.4,3.5,0.1,4.8l-41.8,43.6
				C93.8,235.1,92.9,235.5,92,235.5z"/>
		</g>
	</g>
</g>
</svg>
