<?xml version="1.0" encoding="utf-8"?>
<!-- Generator: Adobe Illustrator 26.3.1, SVG Export Plug-In . SVG Version: 6.00 Build 0)  -->
<svg version="1.1" id="Capa_1" xmlns="http://www.w3.org/2000/svg" xmlns:xlink="http://www.w3.org/1999/xlink" x="0px" y="0px"
	 width="256px" height="256px" viewBox="0 0 256 256" enable-background="new 0 0 256 256" xml:space="preserve">
<g>
	<g>
		<g>
			<path fill="#FFFFFF" d="M169.8,95.7c0,10.9-6.6,18-21.7,19.6H11.5L9.3,11.8l160.4,0.6V95.7z"/>
			<path d="M148.1,115.8H11.5c-0.3,0-0.5-0.2-0.5-0.5L8.8,11.8c0-0.1,0-0.3,0.1-0.4c0.1-0.1,0.2-0.1,0.3-0.1l160.4,0.6
				c0.3,0,0.5,0.2,0.5,0.5v83.4C170.3,107.5,162.8,114.2,148.1,115.8C148.2,115.7,148.1,115.8,148.1,115.8z M12,114.8h136.1
				c14.1-1.5,21.2-7.9,21.2-19.1V12.8L9.8,12.3L12,114.8z"/>
		</g>
		<g>
			<path fill="#FFFFFF" d="M169.7,97.9c0,0,1-15.9-26.6-13.4c4.8-26.3-2.1-84-2.1-84s25.4-4.2,28.8,9.2
				C173.2,23.1,169.7,97.9,169.7,97.9z"/>
			<path d="M169.7,98.4C169.7,98.4,169.7,98.4,169.7,98.4c-0.3,0-0.5-0.2-0.5-0.5c0,0,0,0,0,0c0-0.3,0.1-4.5-3.6-8
				c-4.3-4.2-11.9-5.8-22.5-4.8c-0.2,0-0.3,0-0.4-0.2c-0.1-0.1-0.1-0.3-0.1-0.4c4.7-25.9-2.1-83.3-2.1-83.9c0-0.3,0.1-0.5,0.4-0.5
				c0.1,0,6.5-1,13.2-0.4c9.1,0.9,14.7,4.3,16.1,10c3.4,13.3,0.1,84.5-0.1,88.3c0,0,0,0,0,0.1C170.2,98.2,169.9,98.4,169.7,98.4z
				 M148.8,83.7c7.9,0,13.8,1.8,17.5,5.4c1.6,1.5,2.5,3.1,3.1,4.6c0.7-15.9,2.9-72.5-0.1-83.9c-3.1-11.9-24.4-9.4-27.8-9
				c0.6,5.5,6.5,58,2.2,83.1C145.5,83.8,147.2,83.7,148.8,83.7z"/>
		</g>
	</g>
	<g>
		<g>
			<path d="M39.2,32.8H20.7c-0.1,0-0.2-0.1-0.2-0.2c0-0.1,0.1-0.2,0.2-0.2h18.5c0.1,0,0.2,0.1,0.2,0.2
				C39.3,32.8,39.3,32.8,39.2,32.8z"/>
		</g>
		<g>
			<path d="M46.8,24.4H20.7c-0.1,0-0.2-0.1-0.2-0.2c0-0.1,0.1-0.2,0.2-0.2h26.1c0.1,0,0.2,0.1,0.2,0.2C47,24.3,46.9,24.4,46.8,24.4z
				"/>
		</g>
	</g>
	<g>
		<g>
			<path d="M117.4,102.5C117.4,102.5,117.4,102.5,117.4,102.5l-87.7-0.5c-0.3,0-0.5-0.2-0.5-0.5c0-0.3,0.2-0.5,0.5-0.5c0,0,0,0,0,0
				l87.6,0.5c0.3,0,0.5,0.2,0.5,0.5C117.9,102.3,117.7,102.5,117.4,102.5z"/>
		</g>
		<g>
			<path d="M113.9,105.6c-0.2,0-0.3-0.1-0.4-0.2c-0.1-0.2-0.1-0.5,0.2-0.7l4-2.5l-3.8-3c-0.2-0.2-0.2-0.5-0.1-0.7
				c0.2-0.2,0.5-0.2,0.7-0.1l4.3,3.5c0.1,0.1,0.2,0.3,0.2,0.4c0,0.2-0.1,0.3-0.2,0.4l-4.6,2.8C114.1,105.6,114,105.6,113.9,105.6z"
				/>
		</g>
		<g>
			<path d="M33.6,104.8c-0.1,0-0.2,0-0.3-0.1l-4.6-2.8c-0.1-0.1-0.2-0.2-0.2-0.4c0-0.2,0.1-0.3,0.2-0.4l4.3-3.5
				c0.2-0.2,0.5-0.1,0.7,0.1c0.2,0.2,0.1,0.5-0.1,0.7l-3.8,3l4,2.5c0.2,0.1,0.3,0.4,0.2,0.7C33.9,104.7,33.8,104.8,33.6,104.8z"/>
		</g>
	</g>
	<g opacity="0.1294">
		<path d="M170.5,93.8C170.5,93.8,170.5,93.9,170.5,93.8C170.5,93.9,170.5,93.8,170.5,93.8c0-0.1,0-0.1-0.1-0.2
			c-0.1-0.3-0.3-0.7-0.6-1c-0.6-0.8-1.4-1.7-2.3-2.5c-0.5-0.5-0.9-0.9-1.4-1.2c-5.9-3.5-13.6-4.8-20.9-4.6c-0.1,0-0.1,0-0.2,0
			c-0.8,0-1.6-0.1-2.3,0.4c-0.3,0.1-0.5,0.3-0.7,0.5c-0.4,0.5-0.2,1,0.2,1.4c0.3,0.6,1,1.1,1.9,1c3.4,0.2,2.2,0.1,5.6,0.6
			c3.5,0.5,7,1.1,10.2,2.1c0.2,0.1,0.4,0.1,0.6,0.2c0,0-0.1,0-0.1,0c1.4,0.5,2.6,1.1,3.8,1.8c2,1.2,1,0.6,2.1,1.3
			c0.6,0.4,0.6,0.5,1.3,1.1c0.1,0.1,0.1,0.1,0.2,0.1c0.1,0.1,0.2,0.1,0.3,0.2c0.1,0.1,0.3,0.2,0.5,0.2c0.8,0.2,1.7-0.2,1.9-0.9
			C170.6,94.3,170.6,94.1,170.5,93.8z"/>
	</g>
	<g>
		<polygon fill="#FFFFFF" points="44,90.6 107.2,91.2 107.2,43.1 44,43 		"/>
		<path d="M107.2,91.7C107.2,91.7,107.2,91.7,107.2,91.7L44,91.1c-0.3,0-0.5-0.2-0.5-0.5V43c0-0.1,0.1-0.3,0.1-0.3
			c0.1-0.1,0.2-0.1,0.3-0.1c0,0,0,0,0,0l63.2,0c0.3,0,0.5,0.2,0.5,0.5v48.2c0,0.1-0.1,0.3-0.1,0.3C107.4,91.7,107.3,91.7,107.2,91.7
			z M44.5,90.1l62.2,0.6V43.6l-62.2,0V90.1z"/>
	</g>
	<g>
		<polygon fill="#0241B8" points="86.4,60.8 107.2,60.8 107.2,43 86.4,43.1 		"/>
		<path fill="#0241B8" d="M107.2,61.3H86.4c-0.3,0-0.5-0.2-0.5-0.5V43.1c0-0.3,0.2-0.5,0.5-0.5l20.8,0c0,0,0,0,0,0
			c0.1,0,0.3,0.1,0.3,0.1c0.1,0.1,0.1,0.2,0.1,0.3v17.8C107.7,61.1,107.4,61.3,107.2,61.3z M86.9,60.3h19.8V43.5l-19.8,0V60.3z"/>
	</g>
	<g>
		<rect x="44" y="43" fill="#FFFFFF" width="5.8" height="5.8"/>
		<path d="M49.8,49.3H44c-0.3,0-0.5-0.2-0.5-0.5V43c0-0.3,0.2-0.5,0.5-0.5h5.8c0.3,0,0.5,0.2,0.5,0.5v5.8
			C50.3,49.1,50.1,49.3,49.8,49.3z M44.5,48.4h4.8v-4.8h-4.8V48.4z"/>
	</g>
	<g>
		<rect x="44" y="84.8" fill="#FFFFFF" width="5.8" height="5.8"/>
		<path d="M49.8,91.1H44c-0.3,0-0.5-0.2-0.5-0.5v-5.8c0-0.3,0.2-0.5,0.5-0.5h5.8c0.3,0,0.5,0.2,0.5,0.5v5.8
			C50.3,90.9,50.1,91.1,49.8,91.1z M44.5,90.1h4.8v-4.8h-4.8V90.1z"/>
	</g>
	<g>
		<rect x="101.1" y="43" fill="#FFFFFF" width="5.8" height="5.8"/>
		<path d="M106.9,49.3h-5.8c-0.3,0-0.5-0.2-0.5-0.5V43c0-0.3,0.2-0.5,0.5-0.5h5.8c0.3,0,0.5,0.2,0.5,0.5v5.8
			C107.4,49.1,107.1,49.3,106.9,49.3z M101.5,48.4h4.8v-4.8h-4.8V48.4z"/>
	</g>
	<g>
		<rect x="101.4" y="85.3" fill="#FFFFFF" width="5.8" height="5.8"/>
		<path d="M107.2,91.6h-5.8c-0.3,0-0.5-0.2-0.5-0.5v-5.8c0-0.3,0.2-0.5,0.5-0.5h5.8c0.3,0,0.5,0.2,0.5,0.5v5.8
			C107.7,91.4,107.4,91.6,107.2,91.6z M101.8,90.6h4.8v-4.8h-4.8V90.6z"/>
	</g>
	<g>
		<path d="M64,60.5C64,60.5,64,60.5,64,60.5c-0.1,0-0.2-0.1-0.2-0.2l0.2-16.9c0-0.1,0.1-0.2,0.2-0.2c0.1,0,0.2,0.1,0.2,0.2
			l-0.2,16.9C64.2,60.5,64.1,60.5,64,60.5z"/>
	</g>
	<g>
		<path d="M64,91C64,91,64,91,64,91c-0.1,0-0.2-0.1-0.2-0.2l0.2-16.9c0,0,0-0.1,0-0.1l7.1-7.5c0.1-0.1,0.2-0.1,0.2,0
			c0.1,0.1,0.1,0.2,0,0.2l-7.1,7.4l-0.2,16.9C64.2,90.9,64.1,91,64,91z"/>
	</g>
	<g>
		<path d="M86.3,91C86.3,91,86.3,91,86.3,91c-0.1,0-0.2-0.1-0.2-0.2l0.2-16.9c0-0.1,0.1-0.2,0.2-0.2c0.1,0,0.2,0.1,0.2,0.2
			l-0.2,16.9C86.5,90.9,86.4,91,86.3,91z"/>
	</g>
	<g opacity="0.1294">
		<path d="M106.1,61c-4.6-0.1-9.2-0.1-13.8-0.1c-1.8,0.1-3.6,0-5.4,0.3c-0.7,0.3-0.5,1.3,0.3,1.3c6.4-0.4,12.8-0.2,19.2-0.1
			C107.3,62.3,107.1,60.9,106.1,61z"/>
	</g>
	<g opacity="0.1294">
		<path d="M106.6,49c-0.7-0.2-1.5-0.1-2.2-0.1c-1.1,0-2.2,0-3.3,0.1c-0.7,0.3-0.5,1.3,0.3,1.3c1.6,0,3.3,0,4.9,0
			C107,50.2,107.2,49.3,106.6,49z"/>
	</g>
	<g opacity="0.1294">
		<path d="M49.9,49.4c-0.2-0.2-0.5-0.2-0.8-0.2c-0.4,0-0.7,0-1.1,0c-0.7,0-2.2-0.1-2.3-0.1c-0.3,0-0.7-0.2-1,0
			c-0.6,0.3-0.3,1.2,0.3,1.2c1.2,0.1,2.3,0.1,3.5,0.1c0.4,0,0.8,0.1,1.2,0C50.1,50.2,50.2,49.6,49.9,49.4z"/>
	</g>
	<g>
		<path d="M122.9,43.2C122.9,43.2,122.9,43.2,122.9,43.2c-5.5-0.1-11-0.1-16.5,0c0,0,0,0,0,0c-0.1,0-0.2-0.1-0.2-0.2
			c0-0.1,0.1-0.2,0.2-0.2c5.5,0,11,0,16.5,0c0.1,0,0.2,0.1,0.2,0.2C123.1,43.1,123,43.2,122.9,43.2z"/>
	</g>
	<g>
		<path d="M122.1,91.7C122.1,91.7,122.1,91.7,122.1,91.7c-5-0.1-10.1-0.1-15,0c0,0,0,0,0,0c-0.1,0-0.2-0.1-0.2-0.2
			c0-0.1,0.1-0.2,0.2-0.2c5,0,10,0,15,0c0.1,0,0.2,0.1,0.2,0.2C122.3,91.6,122.2,91.7,122.1,91.7z"/>
	</g>
	<g>
		<g>
			<path d="M118.8,55.8C118.8,55.8,118.8,55.8,118.8,55.8c-0.3,0-0.5-0.2-0.5-0.5l0.2-12.3c0-0.2,0.1-0.4,0.3-0.5
				c0.2-0.1,0.4,0,0.5,0.2l2.9,3.7c0.2,0.2,0.1,0.5-0.1,0.7c-0.2,0.2-0.5,0.1-0.7-0.1l-2.1-2.6l-0.2,10.9
				C119.3,55.6,119.1,55.8,118.8,55.8z"/>
		</g>
		<g>
			<path d="M115.9,47.5c-0.1,0-0.2,0-0.3-0.1c-0.2-0.2-0.2-0.5,0-0.7c1.1-1.2,2.1-2.4,3.1-3.6c0.2-0.2,0.5-0.3,0.7-0.1
				c0.2,0.2,0.3,0.5,0.1,0.7c-1,1.3-2,2.5-3.1,3.7C116.2,47.5,116.1,47.5,115.9,47.5z"/>
		</g>
	</g>
	<g>
		<g>
			<path d="M118.9,91.3c-0.1,0-0.3-0.1-0.4-0.2l-2.9-3.7c-0.2-0.2-0.1-0.5,0.1-0.7c0.2-0.2,0.5-0.1,0.7,0.1l2.1,2.6l0.2-10.9
				c0-0.3,0.2-0.5,0.5-0.5c0.3,0,0.5,0.2,0.5,0.5l-0.2,12.3c0,0.2-0.1,0.4-0.3,0.5C119,91.3,118.9,91.3,118.9,91.3z"/>
		</g>
		<g>
			<path d="M118.9,91c-0.1,0-0.2,0-0.3-0.1c-0.2-0.2-0.3-0.5-0.1-0.7c1-1.3,2-2.5,3.1-3.7c0.2-0.2,0.5-0.2,0.7,0
				c0.2,0.2,0.2,0.5,0,0.7c-1.1,1.2-2.1,2.4-3.1,3.6C119.2,90.9,119,91,118.9,91z"/>
		</g>
	</g>
	<g opacity="0.1294">
		<path d="M107.2,91.8C107.2,91.8,107.2,91.8,107.2,91.8c-0.1,0-0.2,0-0.2,0c-0.2,0-0.9,0-0.5,0c-1.1,0-1.2,0-2.2,0
			c-4.1,0.3-7.5-0.2-11.9-0.3c-8.1-0.2-16.1-0.2-24.2-0.1c-5.9,0.1-11.9-0.3-17.8-0.5c-1.2,0-2.5,0-3.7-0.2c0,0,0.1,0,0.2,0
			c-0.6-0.1-1.2-0.1-1.7-0.2c-0.4,0-0.9-0.2-1.3,0c-1.1,0.4-0.7,2.1,0.4,2.1c3.4,0.2,6.8,0.4,10.2,0.4c2.7,0.1,5.4,0.3,8.1,0.4
			c2.5,0.1,5.1-0.1,7.6-0.1c3.9-0.1,7.9,0,11.8,0c3.3,0.1,6.6-0.1,10-0.1c4.6,0.2,10.5,0.4,13.4,0c1,0,0.8,0.1,1.5,0.2
			c0.1,0,0.1,0,0.1,0c0.1,0,0.2,0.1,0.3,0.1c0.5,0,0.9-0.4,0.9-0.8C108,92.2,107.7,91.8,107.2,91.8z"/>
	</g>
</g>
<g>
	<g>
		<path fill="#FFFFFF" d="M253.7,251.7c-0.8-38.4-0.3-80.6,1.7-119c-61.8,0-120.6-0.5-174.3-0.5c0.5,39.1,0.9,78.6,0.9,119.4
			C133.3,251.7,195.4,249.5,253.7,251.7z"/>
		<path d="M82.1,252.3c-0.4,0-0.7-0.3-0.7-0.7c0-40.5-0.5-80.1-0.9-118.4l0-1.1c0-0.2,0.1-0.4,0.2-0.5c0.1-0.1,0.3-0.2,0.5-0.2
			c25.9,0,52.6,0.1,80.9,0.2c30.1,0.1,61.3,0.2,93.3,0.2c0.2,0,0.4,0.1,0.5,0.2c0.1,0.1,0.2,0.3,0.2,0.5c-2,37.8-2.6,80.1-1.7,118.9
			c0,0.2-0.1,0.4-0.2,0.5c-0.1,0.1-0.3,0.2-0.5,0.2c-39.6-1.5-80.1-1-119.4-0.5C115.9,252.1,98.5,252.3,82.1,252.3z M81.8,132.9
			l0,0.4c0.5,38.1,0.9,77.4,0.9,117.7c16.2,0,33.4-0.2,51.5-0.5c39-0.5,79.4-1,118.7,0.4c-0.8-38.4-0.2-80.1,1.7-117.6
			c-31.8,0-62.7-0.1-92.6-0.2C134,133,107.5,132.9,81.8,132.9z"/>
	</g>
	<g>
		<path fill="#FFFFFF" d="M223.8,126.2c-25.2-0.1-50.3-0.3-75.4-0.5c-21.3-0.2-45.9,0.2-67.2,0c-0.3,5.5-0.3,9.9,0,13.4
			c54.7,0,119-0.7,174.1,0c0.3-3.5,0.1-8.4,0.1-12.7C246.1,126.4,233.1,126.3,223.8,126.2z"/>
		<path d="M81.2,139.8c-0.3,0-0.6-0.3-0.7-0.6c-0.3-3.4-0.3-7.7,0-13.5c0-0.4,0.3-0.7,0.7-0.6c11.3,0.1,23.7,0.1,35.7,0
			c10.6,0,21.5-0.1,31.6,0c23.2,0.2,49.6,0.4,75.4,0.5l0,0c3.8,0,8.2,0,12.7,0.1c6.6,0,13.3,0.1,18.8,0.1c0.4,0,0.7,0.3,0.7,0.7
			c0,1.3,0,2.6,0,3.9c0,3.1,0.1,6.4-0.1,8.9c0,0.3-0.3,0.6-0.7,0.6c0,0,0,0,0,0c-37.1-0.5-78.2-0.3-118-0.2
			C117.6,139.7,99.1,139.8,81.2,139.8z M81.8,126.4c-0.2,5.1-0.2,9,0,12.1c17.7,0,36-0.1,55.4-0.2c39.6-0.2,80.5-0.3,117.4,0.2
			c0.2-2.3,0.1-5.3,0.1-8.1c0-1.1,0-2.2,0-3.3c-5.4,0-11.9,0-18.2-0.1c-4.5,0-8.9-0.1-12.7-0.1c-25.9-0.1-52.2-0.3-75.5-0.5
			c-10-0.1-20.9,0-31.5,0C105.1,126.4,92.9,126.5,81.8,126.4z"/>
	</g>
	<g>
		<path d="M88.6,133.4c-0.4,0-0.7-0.3-0.7-0.6c0-0.4,0.3-0.7,0.6-0.7l7-0.2c0.4,0,0.7,0.3,0.7,0.6c0,0.4-0.3,0.7-0.6,0.7L88.6,133.4
			C88.6,133.4,88.6,133.4,88.6,133.4z"/>
	</g>
	<g>
		<path d="M103.8,132.9c-0.4,0-0.7-0.3-0.7-0.7c0-0.4,0.3-0.7,0.7-0.7l7,0c0,0,0,0,0,0c0.4,0,0.7,0.3,0.7,0.7c0,0.4-0.3,0.7-0.7,0.7
			L103.8,132.9C103.8,132.9,103.8,132.9,103.8,132.9z"/>
	</g>
	<g>
		<path d="M118.3,132.9c-0.4,0-0.7-0.3-0.7-0.6c0-0.4,0.3-0.7,0.6-0.7l7-0.2c0.4,0,0.7,0.3,0.7,0.6c0,0.4-0.3,0.7-0.6,0.7
			L118.3,132.9C118.3,132.9,118.3,132.9,118.3,132.9z"/>
	</g>
</g>
<g>
	<g>
		<path d="M134.8,165.7h-21c-0.1,0-0.2-0.1-0.2-0.2c0-0.1,0.1-0.2,0.2-0.2h21c0.1,0,0.2,0.1,0.2,0.2
			C135,165.6,134.9,165.7,134.8,165.7z"/>
	</g>
	<g>
		<path d="M143.4,155.1h-29.6c-0.1,0-0.2-0.1-0.2-0.2c0-0.1,0.1-0.2,0.2-0.2h29.6c0.1,0,0.2,0.1,0.2,0.2
			C143.6,155,143.5,155.1,143.4,155.1z"/>
	</g>
</g>
<g>
	<path d="M192.3,222.9H157c-0.2,0-0.4-0.1-0.5-0.2c-0.1-0.1-0.2-0.3-0.2-0.5l0.8-31.9h-11.7c-0.3,0-0.5-0.2-0.6-0.4
		c-0.1-0.3,0-0.5,0.2-0.7l29.4-27.2c0.3-0.2,0.7-0.2,0.9,0l27.1,27.2c0.2,0.2,0.2,0.5,0.1,0.7c-0.1,0.2-0.3,0.4-0.6,0.4h-9.9
		l0.9,31.9c0,0.2-0.1,0.4-0.2,0.5C192.7,222.8,192.5,222.9,192.3,222.9z M157.7,221.5h34l-0.9-31.9c0-0.2,0.1-0.4,0.2-0.5
		c0.1-0.1,0.3-0.2,0.5-0.2h8.9l-25.5-25.6l-27.7,25.6h10.7c0.2,0,0.4,0.1,0.5,0.2c0.1,0.1,0.2,0.3,0.2,0.5L157.7,221.5z"/>
</g>
<g>
	<rect x="169.4" y="195" fill="#0241B8" width="11.3" height="12.6"/>
	<path fill="#0241B8" d="M180.7,208.3h-11.3c-0.4,0-0.7-0.3-0.7-0.7V195c0-0.4,0.3-0.7,0.7-0.7h11.3c0.4,0,0.7,0.3,0.7,0.7v12.6
		C181.3,208,181,208.3,180.7,208.3z M170,206.9h10v-11.3h-10V206.9z"/>
</g>
<g>
	<g>
		<path d="M226.4,223.9c-0.4,0-0.7-0.3-0.7-0.7l-0.4-66.4c0-0.4,0.3-0.7,0.7-0.7c0,0,0,0,0,0c0.4,0,0.7,0.3,0.7,0.7l0.4,66.4
			C227.1,223.6,226.8,223.9,226.4,223.9C226.4,223.9,226.4,223.9,226.4,223.9z"/>
	</g>
	<g>
		<path d="M226.1,157.5h-7.5c-0.4,0-0.7-0.3-0.7-0.7s0.3-0.7,0.7-0.7h7.5c0.4,0,0.7,0.3,0.7,0.7S226.4,157.5,226.1,157.5z"/>
	</g>
	<g>
		<path d="M226.1,223.9h-7.5c-0.4,0-0.7-0.3-0.7-0.7s0.3-0.7,0.7-0.7h7.5c0.4,0,0.7,0.3,0.7,0.7S226.4,223.9,226.1,223.9z"/>
	</g>
	<g>
		<path d="M226.1,179h-7.5c-0.4,0-0.7-0.3-0.7-0.7c0-0.4,0.3-0.7,0.7-0.7h7.5c0.4,0,0.7,0.3,0.7,0.7
			C226.7,178.7,226.4,179,226.1,179z"/>
	</g>
	<g>
		<path d="M226.1,201.5h-7.5c-0.4,0-0.7-0.3-0.7-0.7c0-0.4,0.3-0.7,0.7-0.7h7.5c0.4,0,0.7,0.3,0.7,0.7
			C226.7,201.2,226.4,201.5,226.1,201.5z"/>
	</g>
</g>
<g opacity="0.1294">
	<path d="M191.2,223.2c-8.2,0.1-16.4,0-24.5-0.2c-2.2,0-4.5,0-6.7,0c-1,0.1-2-0.2-2.9,0.1c-1.4,0.6-0.9,2.9,0.5,2.9
		c11.3,0.1,22.7,0.6,34,0.2C193.6,225.9,193.2,222.8,191.2,223.2z"/>
</g>
</svg>
