<?xml version="1.0" encoding="utf-8"?>
<!-- Generator: Adobe Illustrator 26.3.1, SVG Export Plug-In . SVG Version: 6.00 Build 0)  -->
<svg version="1.1" id="Capa_1" xmlns="http://www.w3.org/2000/svg" xmlns:xlink="http://www.w3.org/1999/xlink" x="0px" y="0px"
	 width="256px" height="256px" viewBox="0 0 256 256" enable-background="new 0 0 256 256" xml:space="preserve">
<g>
	<g>
		<g>
			<path fill="#969696" d="M165.6,210.3c-0.4,0-0.9-0.1-1.3-0.3l-56.7-32.7c-1.6-1-2.9-2.4-3.3-4.3c-0.4-1.9-0.1-3.7,0.7-5.3
				l28.6-47.3c0.3-0.6,0.4-1.1,0.3-1.7c-0.1-0.6-0.6-1.1-1.1-1.4l-11.2-6.5c-1.3-0.7-3-0.7-4.3,0l-9.5,5.5c-1.3,0.7-2.9,0.3-3.6-1
				s-0.3-2.9,1-3.6l9.5-5.5c2.9-1.7,6.6-1.7,9.5,0l11.2,6.5c1.7,1,3,2.7,3.6,4.6c0.6,2,0.1,4-0.9,5.7l-28.6,47.3
				c-0.3,0.4-0.3,0.9-0.1,1.4c0.1,0.4,0.4,0.9,0.9,1.1l56.7,32.7c1.3,0.7,1.7,2.3,1,3.6C167.5,209.9,166.6,210.3,165.6,210.3z"/>
		</g>
		<g id="Axonometric_Cylinder">
			<path id="Cylinder_face_255_" fill="#D4CEBB" d="M25.2,173.7c0,7.6-5.5,10.8-12.1,6.9C6.5,176.7,1,167.4,1,159.8
				c0-7.6,5.5-10.8,12.1-6.9C19.8,156.6,25.2,166,25.2,173.7z"/>
			<path id="Cylinder_face_257_" fill="#969696" d="M22.1,171.8c0,5.7-4,8-8.9,5.2c-4.9-2.9-8.9-9.8-8.9-15.5c0-5.7,4-8,8.9-5.2
				C18.1,159.2,22.1,166.2,22.1,171.8z"/>
			<path id="Cylinder_face_258_" fill="#6B6B6B" d="M19.4,170.4c0,4-2.9,5.6-6.3,3.6c-3.4-2-6.3-6.9-6.3-10.9s2.9-5.6,6.3-3.6
				C16.7,161.5,19.4,166.4,19.4,170.4z"/>
			<path id="Cylinder_body_242_" fill="#F0ECE0" d="M4.6,152l98.5-56.9c2.2-1.3,5.2-1.1,8.6,0.9c6.6,3.9,12.1,13.2,12.1,20.8
				c0,3.7-1.3,6.5-3.4,7.8l-98.7,56.9c2.2-1.3,3.4-4,3.4-7.8c0-7.6-5.5-17.1-12.1-20.8C9.8,150.9,6.8,150.7,4.6,152z"/>
		</g>
	</g>
	<g id="Axonometric_Cylinder_7_">
		<path fill="#000057" d="M126.7,175.9c-1.1-0.7-2.6-0.6-4.3,0.4c-3.3,1.9-6,6.6-6,10.5c0,1.9,0.7,3.3,1.7,3.9l49.7,28.7l8.6-14.8
			L126.7,175.9z"/>
		<path opacity="0.5" fill="#000057" enable-background="new    " d="M166.1,215.5l-49.7-28.7c0,1.9,0.7,3.3,1.7,3.9l49.7,28.7
			C166.6,218.8,166.1,217.4,166.1,215.5z"/>
		<path id="Cylinder_face_261_" fill="#000057" d="M166.1,215.5c0,3.9,2.7,5.5,6,3.4c3.3-1.9,6-6.6,6-10.5s-2.7-5.5-6-3.4
			C168.8,207,166.1,211.6,166.1,215.5z"/>
	</g>
	
		<linearGradient id="SVGID_1_" gradientUnits="userSpaceOnUse" x1="169.9274" y1="157.2543" x2="251.0769" y2="157.2543" gradientTransform="matrix(1 0 0 -1 0 256)">
		<stop  offset="0" style="stop-color:#D3CDBA"/>
		<stop  offset="1" style="stop-color:#E7E0CE"/>
	</linearGradient>
	<path fill="url(#SVGID_1_)" d="M169.9,50.5v72.8c-0.1,6,3.9,12.2,11.9,16.8c15.8,9.2,41.5,9.2,57.3,0c7.8-4.5,11.8-10.5,11.9-16.4
		V50.9L169.9,50.5z"/>
	<path id="Cylinder_face_182_" fill="#F0ECE0" d="M239.2,67.1c15.8-9.2,15.8-24,0-33.2s-41.5-9.2-57.3,0s-15.8,24,0,33.2
		S223.4,76.3,239.2,67.1z"/>
	<path id="Cylinder_face_181_" opacity="0.3" fill="#D7D1BE" enable-background="new    " d="M235.6,64.7c13.9-8,13.9-21.1,0-29
		c-13.9-8-36.5-8-50.4,0c-13.9,8-13.9,21.1,0,29C199.2,72.8,221.8,72.8,235.6,64.7z"/>
	<path opacity="0.4" fill="#D7D1BE" enable-background="new    " d="M185.3,36.3c13.9-8,36.5-8,50.4,0c6.8,3.9,10.2,9,10.3,14.2
		c0.1-5.3-3.3-10.8-10.3-14.9c-13.9-8-36.5-8-50.4,0c-7.2,4.2-10.6,9.5-10.3,14.9C175.1,45.3,178.5,40.3,185.3,36.3z"/>
	<g>
		<path id="Cylinder_face_180_" fill="#0241B8" d="M232.4,64c12.2-7,12.2-18.4,0-25.4c-12.2-7-31.9-7-43.9,0
			c-12.2,7-12.2,18.4,0,25.4C200.7,70.9,220.3,70.9,232.4,64z"/>
		<path fill="#0241B8" d="M232.4,39.9c-12.2-7-31.9-7-43.9,0c-5.7,3.3-8.8,7.6-9,12.1c0.3,4.3,3.3,8.8,9,12.1c12.2,7,31.9,7,43.9,0
			c5.7-3.3,8.8-7.6,9-12.1C241.3,47.5,238.3,43.2,232.4,39.9z"/>
		<path fill="#0241B8" d="M232.4,39.9c-12.2-7-31.9-7-43.9,0c-5.7,3.3-8.8,7.6-9,12.1c0.3,4.3,3.3,8.8,9,12.1c12.2,7,31.9,7,43.9,0
			c5.7-3.3,8.8-7.6,9-12.1C241.3,47.5,238.3,43.2,232.4,39.9z"/>
		<path opacity="0.5" fill="#0241B8" enable-background="new    " d="M188.5,42.9c12.2-7,31.9-7,43.9,0c5,2.9,8,6.6,8.9,10.5
			c0.1-0.4,0.1-1,0.3-1.4c-0.3-4.3-3.3-8.8-9-12.1c-12.2-7-31.9-7-43.9,0c-5.7,3.3-8.8,7.6-9,12.1c0,0.4,0.1,1,0.3,1.4
			C180.4,49.5,183.3,45.7,188.5,42.9z"/>
	</g>
	<path fill="#0241B8" d="M247.2,59c-3.4,0-4.5-0.3-5.2,0.7c-0.3,0.3-0.3,0.4-0.6,0.4l-3.6,7.5c0.4,0,0.7,0.3,0.7,0.7v24.1v20.4
		c0,0.7,0.6,1,1.3,0.6c0.7-0.4,1.3-1.3,1.3-2v-10.5c0,0.7,0.6,1,1.3,0.6c0.6-0.3,1-0.9,1.1-1.4v5.5c0,0.7,0.6,1,1.3,0.6
		c0.7-0.4,1.3-1.3,1.3-2V92.9c0.1,0.4,0.6,0.4,1.1,0.1c0.7-0.4,1.3-1.3,1.3-2v-6.8v-21v-3.2C248.5,59.5,247.9,59,247.2,59z"/>
	<path fill="#0241B8" d="M247.2,59c-3.4,0-4.5-0.3-5.2,0.7c-0.3,0.3-0.3,0.4-0.6,0.4c-0.3,0-6,2-6.5,2l-6.5,5.7
		c0.6-0.1,1-0.3,1.6-0.3h7.6c0.1,0,0.3,0,0.3,0.1c0.3-0.1,0.7-0.3,1-0.4c4-2.3,7-5,9-7.9C247.9,59.1,247.6,59,247.2,59z"/>
	<path fill="#0241B8" d="M242.2,59.5C242.2,59.5,242,59.5,242.2,59.5c-0.4,0.4-0.4,0.6-0.7,0.6c-0.3,0-5,0-5.3,0l-13.6,7.2l2.6,0.7
		c1.1,0.3,2.3,0.1,3.3-0.1c2.6-0.9,5-1.9,7.2-3.2C238.3,63.1,240.4,61.4,242.2,59.5z"/>
	<g id="Axonometric_Cylinder_3_">
		
			<linearGradient id="SVGID_00000008837621698895481940000007801296102705797283_" gradientUnits="userSpaceOnUse" x1="132.7286" y1="119.4281" x2="195.5727" y2="119.4281" gradientTransform="matrix(1 0 0 -1 0 256)">
			<stop  offset="0" style="stop-color:#D3CDBA"/>
			<stop  offset="1" style="stop-color:#E7E0CE"/>
		</linearGradient>
		<path fill="url(#SVGID_00000008837621698895481940000007801296102705797283_)" d="M132.7,99.3v56.3c-0.1,4.7,3,9.5,9.2,12.9
			c12.2,7,32.2,7,44.4,0c6-3.4,9.2-8,9.2-12.6V99.6L132.7,99.3z"/>
		<path id="Cylinder_face_179_" fill="#F0ECE0" d="M186.4,112.4c12.2-7,12.2-18.5,0-25.7c-12.2-7-32.2-7-44.4,0s-12.2,18.5,0,25.7
			C154.3,119.4,174.1,119.4,186.4,112.4z"/>
	</g>
	<path id="Cylinder_face_178_" opacity="0.3" fill="#D7D1BE" enable-background="new    " d="M183.7,110.4
		c10.8-6.2,10.8-16.4,0-22.5c-10.8-6.2-28.3-6.2-39.1,0c-10.8,6.2-10.8,16.4,0,22.5C155.4,116.6,172.9,116.6,183.7,110.4z"/>
	<path opacity="0.4" fill="#D7D1BE" enable-background="new    " d="M144.7,88.4c10.8-6.2,28.3-6.2,39.1,0c5.3,3,7.9,7,8,10.9
		c0.1-4.2-2.6-8.3-8-11.5c-10.8-6.2-28.3-6.2-39.1,0c-5.5,3.2-8.2,7.3-8,11.5C136.8,95.4,139.5,91.4,144.7,88.4z"/>
	<g>
		<path id="Cylinder_face_177_" fill="#0241B8" d="M181.3,109.8c9.5-5.5,9.5-14.2,0-19.7s-24.7-5.5-34,0c-9.5,5.5-9.5,14.2,0,19.7
			C156.6,115.3,171.8,115.3,181.3,109.8z"/>
		<path fill="#0241B8" d="M181.3,91.1c-9.5-5.5-24.7-5.5-34,0c-4.5,2.6-6.8,5.9-7,9.3c0.1,3.4,2.6,6.8,7,9.3c9.5,5.5,24.7,5.5,34,0
			c4.5-2.6,6.8-5.9,7-9.3C188,97,185.7,93.7,181.3,91.1z"/>
		<path fill="#0241B8" d="M181.3,91.1c-9.5-5.5-24.7-5.5-34,0c-4.5,2.6-6.8,5.9-7,9.3c0.1,3.4,2.6,6.8,7,9.3c9.5,5.5,24.7,5.5,34,0
			c4.5-2.6,6.8-5.9,7-9.3C188,97,185.7,93.7,181.3,91.1z"/>
		<path opacity="0.6" fill="#0241B8" enable-background="new    " d="M147.1,93.4c9.5-5.5,24.7-5.5,34,0c3.9,2.3,6.2,5.2,6.9,8.2
			c0.1-0.4,0.1-0.7,0.1-1.1c-0.1-3.4-2.6-6.8-7-9.3c-9.5-5.5-24.7-5.5-34,0c-4.5,2.6-6.8,5.9-7,9.3c0,0.4,0.1,0.7,0.1,1.1
			C140.9,98.6,143.2,95.7,147.1,93.4z"/>
	</g>
	<path fill="#0241B8" d="M192.6,105.9c-2.6,0-3.4-0.3-4,0.6c-0.1,0.1-0.3,0.3-0.4,0.4l-2.7,5.9c0.3,0,0.6,0.3,0.6,0.6v17.5
		c0,0.6,0.4,0.7,1,0.4c0.6-0.3,1-1,1-1.6v-8c0,0.6,0.4,0.7,1,0.4c0.4-0.3,0.7-0.7,0.9-1.1v17.5c0,0.6,0.4,0.7,1,0.4
		c0.6-0.3,1-1,1-1.6v-5c0.1,0.3,0.4,0.3,0.9,0.1c0.6-0.3,1-1,1-1.6v-5.3v-16.2v-2.4C193.6,106.4,193.2,105.9,192.6,105.9z"/>
	<path fill="#0241B8" d="M192.6,105.9c-2.6,0-3.4-0.3-4,0.6c-0.1,0.1-0.3,0.3-0.4,0.4c-0.1,0-4.7,1.6-5,1.6l-5,4.5
		c0.4-0.1,0.9-0.1,1.3-0.1h5.9c0.1,0,0.1,0,0.3,0.1c0.3-0.1,0.6-0.3,0.7-0.4c3.2-1.9,5.5-3.9,7-6.2
		C193.2,106.1,192.9,105.9,192.6,105.9z"/>
	<path fill="#0241B8" d="M188.7,106.4c-0.3,0.3-0.3,0.4-0.6,0.4c-0.1,0-3.9,0-4.2,0l-10.5,5.6l2,0.6c0.9,0.3,1.7,0.1,2.6-0.1
		c2-0.7,3.9-1.4,5.6-2.4C185.7,109.1,187.5,107.8,188.7,106.4z"/>
</g>
</svg>
